<svg id="Layer_1" data-name="Layer 1" xmlns="http://www.w3.org/2000/svg" viewBox="0 0 512 512"><title>twitter-handdrawn</title><path d="M390.8,53.48c-.71,1.23,15.34,6.87,14.48,8.36-.33.56,16,12,15.39,13.06-.71,1.23,4.87,2,4.53,2.62-.1.18.39,3.71.31,3.86-.46.79,4.68,1.79,4.29,2.48-.18.31,3,5.53,2.83,5.89-.41.71.92-.61.43.25-.3.52,8.09,7,7.82,7.43s1,.06.75.44,3.33,4.29,3.24,4.43c-.31.54.81-.24.5.29-.14.24,3,3.63,2.84,3.92-.32.55.2-.32,0,0-.08.14-4.54-1.64-4.62-1.5-.31.55,12.41,6.75,12.23,7.07-.28.49-9.83-4.58-10-4.27-.34.59,11.9,6.39,11.69,6.75s-7.53-1.72-7.79-1.28,11.61,6.11,11.35,6.56c-.14.25-7.74-1.76-7.91-1.47-.29.5,11.36,6.13,11.17,6.46s-9.37-4.4-9.56-4.07c-.31.53,11,5.84,10.79,6.24s-6.75-.46-6.89-.21,10.36,5.36,10.09,5.83-7.87-2.63-8.07-2.29,10.24,5.57,10.09,5.83-7.66-2-7.8-1.8,10.38,5.31,10.08,5.83-7.74-2.56-8-2.14,9.81,5.25,9.63,5.57-7.76-3.22-8-2.75,9.44,5,9.25,5.34c-.28.48-7.67-2.68-7.81-2.43-.28.48,9.36,4.93,9.15,5.29s-7.59-2.46-7.72-2.24c-.27.48,9.43,4.81,9.15,5.29-.12.2-5.68,1.39-5.86,1.71-.27.47,9.22,4.87,9,5.21-.09.15-2.74-1.28-2.81-1.16s.39-.4.12.07c-.11.18-3.2,2.39-3.33,2.62s8.67,4.46,8.43,4.87c-.1.17-3.11,2.62-3.23,2.83s1.6.39,1.37.79c-.13.23-1.54,4.49-1.62,4.63-.24.41,8.32,4.51,8.19,4.73s-5.14-.25-5.27,0,3.87,1.74,3.66,2.11c-.05.09-1.6,1-1.63,1-.16.28,2.32,1,2.17,1.25s-3.56,1.69-3.66,1.87c-.19.33,8.1,4.15,7.87,4.54-.14.24-6.23.5-6.34.71s8,4.29,7.86,4.54-6.91-2.16-7.08-1.86,7.87,4.1,7.67,4.43-6.36.23-6.46.4,7.63,3.93,7.42,4.29-6.7-1.54-6.82-1.33c-.21.37,7.58,4,7.42,4.29s-.79,4.75-1,5,.22-.24.06,0-4.23,1.15-4.33,1.34,7.56,3.9,7.35,4.25c-.09.16-1.94,1.69-2,1.78-.2.34,1.79.67,1.64.94s-5.8-.27-5.9-.1c-.19.33,7.17,3.91,7.07,4.08-.19.34-6.92-4.29-7.06-4s7.25,3.77,7.07,4.08c-.28.49-6.84-4.3-7.05-3.93s7.24,3.8,7.07,4.08-6.84-4.12-7-3.79,7.25,3.76,7.07,4.08-6.86-3.65-7-3.42,7.2,3.87,7.07,4.08-6.71-3.67-7-3.23,7.25,3.78,7.07,4.08-6.65-3-6.88-2.58,7.2,3.85,7.07,4.08-6.4.26-6.51.45,7.26,3.74,7.07,4.08-6.82-3.28-6.94-3.07,7.25,3.76,7.07,4.08-6.75-3-6.9-2.69,7.23,3.8,7.07,4.08-6.69-2.55-6.85-2.28,7.25,3.76,7.06,4.08-6.71-2.28-6.82-2.08,7,3.83,6.93,4-5.8-1.12-5.91-.93,1.83.84,1.74,1-2.33,1.53-2.39,1.63,6.91,3.71,6.79,3.92-6.38.1-6.61.5,7,3.6,6.79,3.92-6.49.32-6.61.53,7,3.63,6.79,3.92-6.49-1.49-6.68-1.16,7,3.63,6.79,3.92-6.47,1-6.65,1.3,6.7,3.57,6.57,3.8-6.44-3.57-6.59-3.31,6.67,3.63,6.57,3.8c-.22.38-6.61.6-6.76.87s6.7,3.57,6.57,3.8-6.53-.69-6.71-.37,6.73,3.53,6.58,3.8-6.52-1.42-6.68-1.13,6.74,3.52,6.58,3.8-6.52-.72-6.71-.38,6.71,3.57,6.58,3.8c-.25.44-6.33-4.13-6.58-3.7-.13.22,6.66,3.66,6.58,3.8-.19.33-6.58-.11-6.74.16s6.54,3.56,6.44,3.72c-.2.35-6.53-1.22-6.76-.81s6.56,3.46,6.41,3.7-6.76,0-6.89.21,6.57,3.44,6.41,3.71-6.44-2.33-6.62-2,6.58,3.42,6.41,3.71-4.35-1.63-4.5-1.37,1.54.56,1.4.81-3.46-1.52-3.52-1.41,6.59,3.41,6.41,3.71-6.35-3.16-6.52-2.87,6.56,3.46,6.41,3.71-4.76-1.16-4.85-1,4.59,2.33,4.45,2.57-6.65.63-6.75.81,6.54,3.5,6.42,3.71-4.87.85-5,1,4.45,2.33,4.34,2.51-6.63-1.61-6.74-1.42,6.41,3.44,6.29,3.64c-.24.42-6.67-1.19-6.86-.85s6.45,3.37,6.29,3.64-3.34.7-3.4.8c-.15.26,1.23.45,1.12.65s-3.37,2.42-3.52,2.68,2.59,1.11,2.42,1.4-4.43-1.51-4.52-1.35,6.38,3.5,6.3,3.64c-.18.32-6.69-1.15-6.87-.84s6.46,3.37,6.3,3.64-6.7-1.22-6.85-1,6.33,3.38,6.21,3.59-7.29.54-7.52.92c-.12.21,6.35,3.35,6.21,3.59s-7.27.3-7.41.55,6.32,3.4,6.21,3.59c0,0-.7-.33-.73-.28s.18-.25,0,0c0,0,.16.62.15.64-.11.2.42,0,.31.18-.25.43-7.1,0-7.27.34s6.3,3.44,6.22,3.59-6.09-3.67-6.3-3.3,6.37,3.33,6.22,3.59-6.19-3.43-6.33-3.2,6.32,3.41,6.22,3.59-1.55,2.28-1.65,2.46.56,0,.43.25-5.63.35-5.79.63,4.11,2.2,4,2.33-5.62-1.77-5.72-1.6,6.29,3.33,6.16,3.56-6.4-2.75-6.59-2.42c-.09.16,6.28,3.34,6.16,3.56s-6.17-3.34-6.38-3,6.26,3.4,6.16,3.56-6.1-3.51-6.34-3.08c-.15.26,6.29,3.33,6.16,3.56s-6.89-1.39-7.15-1c-.15.26,6.27,3.37,6.16,3.56s-6.13-3.47-6.31-3.16,6.3,3.31,6.16,3.56c-.24.42-7.17-.66-7.42-.23-.07.13,6.32,3.29,6.16,3.56-.26.45-7.62.49-7.84.86s6.32,3.3,6.17,3.56-6.16-3.38-6.38-3c-.09.16,6.31,3.32,6.17,3.56s-6.1-3.54-6.32-3.15c-.1.17,6.27,3.39,6.17,3.56s-7.05-1.44-7.17-1.24,6.21,3.42,6.13,3.54-7.7-.12-8,.32c-.08.13,6.23,3.38,6.14,3.55-.24.42-7.83.16-8.11.65-.1.17,6.26,3.33,6.14,3.55-.21.36-7.73-.11-7.85.1s6.24,3.37,6.14,3.55-7-1.63-7.19-1.32c-.08.14,6.28,3.3,6.14,3.55s-7.54-.74-7.81-.28c-.12.21,6.21,3.4,6.13,3.54-.17.3-7.37-1.36-7.51-1.13s6.25,3.35,6.13,3.54-8.12,0-8.31.29,6.26,3.34,6.14,3.55-6,1-6.22,1.37,2.89,1.36,2.76,1.59-5.58-1.39-5.72-1.14,6.26,3.34,6.14,3.55-7.77-.67-7.95-.37,6.27,3.32,6.14,3.55-7.94-.88-8.09-.61,6.28,3.34,6.15,3.56c-.25.43-6-3.87-6.22-3.46-.08.13,6.23,3.42,6.15,3.56s-7.78-1.21-8-.81c-.09.16,6.28,3.33,6.16,3.56-.23.4-8.65.08-8.89.48-.15.26,6.27,3.36,6.16,3.56s-7.64-1.4-7.81-1.1c-.08.14,6.25,3.4,6.16,3.56s-7.73-1.3-8-.85c-.14.24,6.31,3.29,6.16,3.56-.24.42-8.37-.75-8.62-.32-.07.13,6.33,3.35,6.2,3.58-.24.42-6.68-3.07-6.87-2.73s6.34,3.33,6.2,3.58-7-2.65-7.19-2.32c-.08.14,6.27,3.45,6.2,3.58-.24.42-8-1.34-8.24-1-.08.13,6.32,3.37,6.2,3.58s-6.55-3.24-6.79-2.84,6.36,3.29,6.2,3.58-7.31-2.29-7.57-1.86c-.15.26,6.35,3.32,6.2,3.58-.25.44-7.61-1.9-7.82-1.53s6.31,3.39,6.2,3.58c-.2.35-8.15-1.22-8.36-.86s6.34,3.34,6.2,3.58-6.51-3.26-6.66-3,6.28,3.45,6.21,3.59-6.36-3.53-6.54-3.22c-.08.15,6.37,3.38,6.24,3.6-.25.43-6.55-3.41-6.76-3-.13.22,6.38,3.41,6.26,3.62s-7.34-2.6-7.55-2.22c-.09.16,6.37,3.43,6.26,3.62-.25.43-8.61-1.27-8.91-.75-.11.2,6.38,3.41,6.26,3.62-.21.37-8.06-1.8-8.24-1.48s6.38,3.4,6.26,3.62c-.27.46-6.87-3.13-7.14-2.67-.16.28,6.41,3.36,6.26,3.62s-5.2-2.51-5.31-2.31,2.34,1.14,2.25,1.3-5.56-.15-5.69.08,6.36,3.45,6.26,3.62c-.28.49-8.66-1.14-8.84-.84s6.36,3.45,6.26,3.62-7.65-2.55-7.91-2.1c-.14.23,6.47,3.45,6.35,3.67s-5.82-2.09-5.93-1.9,1.69.65,1.55.89-3-1.5-3.11-1.4,5.83,3.18,5.75,3.32c-.18.32-5.18-3.08-5.36-2.76s4.93,2.58,4.82,2.78c-.24.42-6.28-2.74-6.51-2.34-.13.22,6.45,3.48,6.35,3.67-.26.45-8.76-1.62-9-1.21s6.45,3.48,6.35,3.67-7.32-2.93-7.52-2.58,6.44,3.51,6.35,3.67c-.31.54-8.89-1.49-9.11-1.1-.09.16,6.51,3.38,6.35,3.67-.31.54-8.81-1.54-9-1.2s6.47,3.46,6.35,3.67c-.26.45-8.61-2-8.76-1.69s6.63,3.44,6.46,3.73S404.3,443,404,443.4c-.11.2,6.6,3.49,6.46,3.73s-7.06-3.45-7.26-3.09,6.61,3.48,6.46,3.73-4.07-.2-4.14-.08.43-.1.28.16-6.08-1.22-6.27-.9,6.6,3.48,6.46,3.73-8.88-2-9.06-1.66,6.58,3.52,6.46,3.73-8.82-2-9-1.71,6.59,3.5,6.46,3.73-7.48-3.21-7.66-2.89,6.7,3.5,6.54,3.78-7.09-3.54-7.22-3.32,6.75,3.56,6.6,3.81c-.24.41-7.51-3.38-7.68-3.08s6.69,3.65,6.6,3.81-6.8-3.87-7-3.56,6.74,3.57,6.6,3.81c-.23.4-8.4-2.9-8.69-2.4-.1.17,6.74,3.57,6.6,3.81-.3.53-10.15-1.64-10.36-1.27-.12.2,6.7,3.63,6.6,3.81-.21.37-8.13-3.05-8.4-2.6-.16.27,6.78,3.5,6.6,3.81s-5.76-2.06-5.93-1.77.47,0,.36.21-4.67.12-4.76.28,6.78,3.5,6.6,3.81-9.88-.91-10.13-.49c-.14.24,2.86,1.23,2.68,1.55s-7.33-.23-7.44,0,6.91,3.69,6.78,3.92-6.77-4.1-6.92-3.83,6.91,3.68,6.78,3.92c-.22.39-7.13-3.11-7.35-2.73s3.26,1.58,3.13,1.81-8.3.13-8.43.36,6.91,3.68,6.77,3.91-6.77-4.22-7-3.77,6.91,3.69,6.77,3.91c-.25.44-9.56-2.62-9.81-2.2s6.91,3.69,6.78,3.92-8.13-3.46-8.28-3.21,7.1,3.66,6.91,4c-.32.55-9-3.28-9.2-2.91-.09.16,7.1,3.88,7,4-.3.52-9.5-3.1-9.68-2.79s7.1,3.88,7,4-8.81-3.51-9.06-3.08c-.14.25,7.14,3.8,7,4-.39.68-11.89-2-12.11-1.64s7.09,3.88,7,4c-.18.32-9.43-3.09-9.58-2.83s7.12,3.83,7,4c-.38.65-10.51-2.86-10.68-2.57s7.35,4,7.24,4.18c-.3.53-9.63-3.53-9.81-3.21s7.42,4,7.28,4.21-6.84-.33-7-.14,2.25.93,2.09,1.21c-.39.67-11-2.47-11.32-1.92-.1.17,7.44,3.93,7.28,4.21-.25.43-8.57-4-8.76-3.65s7.38,4,7.28,4.2c-.22.39-10.33-2.13-10.52-1.8s2.82,1.33,2.69,1.55-6.64,1.2-6.84,1.54,3.31,1.65,3.19,1.85c-.31.54-12.69-2.64-13-2.17s7.79,4.14,7.63,4.41c-.39.68-12.27-3.48-12.47-3.12s8,4.1,7.76,4.49c-.41.72-14.28-3.78-14.69-3.06-.19.33,8.32,4.29,8.1,4.68s-10.74-4.48-11-4.09,8.26,4.4,8.1,4.68-8.85-4.87-9.08-4.48c-.13.22,8.27,4.38,8.1,4.68s-9.67-2.25-9.92-1.81,4.19,2,4,2.32c-.37.64-11.68-3.84-11.93-3.42s8.54,4.58,8.39,4.85c-.31.53-8.3-5.29-8.57-4.82s8.53,4.65,8.41,4.86-5.65-3.15-5.82-2.86,3.77,1.74,3.59,2.07-7.51-4.35-7.79-3.87c-.18.32,8.81,4.54,8.58,5-.37.65-10.17-3.5-10.53-2.87-.24.41,5.81,3,5.63,3.25s-7.68-3.48-7.94-3,5.44,2.64,5.22,3-9.85-4.8-10.2-4.18c-.22.38,8.86,4.75,8.7,5-.34.59-13.21-5-13.55-4.43-.16.28,8.89,4.68,8.7,5s-10-5.52-10.4-4.88c-.22.39,9,4.75,8.79,5.08s-15.32-5.1-15.57-4.66c-.13.23,1.71.39,1.45.84s-7.11.23-7.36.66,1.92.78,1.77,1c-.27.46-7.57-2.1-7.71-1.85-.29.5,4.9,2.18,4.62,2.67s-12.43-2.7-12.68-2.25,3.07,1,2.74,1.58c-.16.27-6.44-3-6.55-2.77-.25.44,10.86,5.73,10.62,6.14-.32.56-18.89-7.56-19.5-6.51-.18.31,10.8,5.88,10.65,6.15-.53.91-19.65-7.89-20.28-6.8-.37.64,9.37,4.88,9.14,5.28-.42.73-19.22-7.76-19.91-6.57-.3.52,11.13,5.87,10.88,6.29s-14.83-6.23-15.28-5.46c-.23.4,2.18.21,1.73,1-.3.52-13-3.6-13.3-3.16s6.13,2.83,5.82,3.36c-.63,1.1-23.27-10.43-24-9.13-.55.95,10.28,5,9.87,5.71-1,1.68-26.25-13.87-26.73-13s15,7,14.28,8.25c-.93,1.62-30-18.2-31.07-16.28-.65,1.12,24.3,11.2,23.07,13.33" fill="none" stroke="#999" stroke-linecap="round" stroke-linejoin="round" stroke-width="0.97"/><path d="M364.33,32.63c-.53.92,17.16,8.44,16.52,9.54-.92,1.59-34.48-19.9-35.76-17.68C343.63,27,406.88,55.87,405,59.12c-2.13,3.7-74.17-44.88-76.47-40.9-.93,1.61,24.77,13.09,24.24,14-.82,1.42-32.18-17.11-32.9-15.86-.43.75,4.41,1.47,3.94,2.28-.59,1-20.39-8.5-21-7.49-.38.67,11.85,6.09,11.52,6.65-.62,1.08-20.06-7.09-20.4-6.5s1.72.35,1.44.83c-.1.17-5.89-2.28-6-2.08-.28.48.57-.37.26.15s-15.88-4.61-16.27-3.93c-.2.35,1.53,0,1.14.66-.14.25,5.76,3.37,5.64,3.57-.38.66.7-.3.4.23S271,5.25,270.8,5.6c-.37.64,12.55,6.52,12.23,7.07-.61,1.05-18.24-7.93-18.57-7.36-.2.34,11.52,5.86,11.17,6.46s-11.7-6.08-12.14-5.32c-.22.38,1.39,0,1.06.61-.14.24-6-2.27-6.13-2s10.79,5.85,10.63,6.14c-.56,1-17.9-7.26-18.36-6.45-.34.59,10.82,5.8,10.62,6.14-.35.6-14.89-6.49-15.16-6s10.33,5.34,10.06,5.81c-.54.94-15.24-4.51-15.77-3.6-.23.4,6.22,3,6,3.44-.54.94-17-5.51-17.29-4.93-.14.25,9.73,5,9.46,5.47S229,5.31,228.82,5.63c-.28.48,9.61,5.12,9.42,5.45S227.56,8,227.35,8.32s.76.14.63.36c-.35.61-11.2-2.07-11.5-1.55-.15.26,9,4.59,8.7,5s-9.15-3.8-9.31-3.52,3.06,1.22,2.82,1.63-7.92-2.85-8.18-2.41,8.94,4.62,8.7,5-15-4.51-15.47-3.73c-.12.21,8.22,4.46,8.09,4.68-.38.66-9.78-4.79-10.09-4.27-.2.34,8.32,4.3,8.1,4.68s-7.92-5.19-8.23-4.65c-.22.37,8.25,4.41,8.1,4.68-.24.42-11.7-4-12.1-3.33-.2.35,3.16,1.35,3,1.7s-6.76-1.75-7-1.42,8.33,4.29,8.1,4.68-10.67-4.59-11-4.1c-.13.23,8.3,4.34,8.1,4.68-.34.59-12.44-3.9-12.73-3.4-.2.35,7.9,4.07,7.68,4.44s-7.79-4.76-8-4.34,7.85,4.06,7.65,4.42c-.45.78-13.33-3.29-13.69-2.67-.2.35,7.74,4.24,7.64,4.41-.29.5-9.56-4.17-9.77-3.8s7.84,4.07,7.64,4.42c-.3.53-9.3-4.44-9.64-3.84-.11.19,7.8,4.14,7.64,4.42S172.67,16.74,172.5,17s7.81,4.13,7.65,4.42c-.44.77-12.34-3-12.71-2.32-.21.36,4,2.05,3.89,2.25-.28.49-8.34-1.24-8.62-.77s7.45,3.92,7.28,4.21-10.11-3.41-10.3-3.07,7.4,4,7.29,4.21c-.32.55-9.59-3.57-9.75-3.28s7.43,4,7.29,4.21c-.33.58-9.65-3.8-10-3.19-.1.18,7.46,3.92,7.29,4.21s-12.33-2.47-12.71-1.81c-.13.23,7.1,3.88,7,4-.23.4-9.9-3-10.17-2.56-.12.2,7.15,3.79,7,4-.26.45-10.55-2.7-10.8-2.26-.12.2,7.12,3.85,7,4S137.79,31,137.48,31.57c-.15.25,7.12,3.85,7,4-.28.49-9.75-3-10-2.55s7.1,3.69,6.92,4c-.32.56-9-2.92-9.24-2.55s2.08.94,2,1.14-2.27-1.17-2.33-1.07c-.19.33,6.94,3.64,6.78,3.92-.29.5-9.64-2.5-9.83-2.19s7,3.63,6.78,3.92c-.27.47-8-3.6-8.28-3.07-.08.15,6.92,3.68,6.78,3.92-.31.54-10.14-2.33-10.41-1.86-.11.2,6.91,3.71,6.79,3.92s-6.78-4.07-6.9-3.85,6.88,3.76,6.79,3.92c-.22.38-9-2.89-9.13-2.59s6.88,3.76,6.79,3.92c-.24.41-7.17-3.91-7.34-3.61s7,3.62,6.79,3.92-7.13-4-7.35-3.6c-.12.2,6.93,3.68,6.79,3.92s-10-2.08-10.2-1.76,6.75,3.56,6.6,3.82-7-3.74-7.23-3.39,6.76,3.55,6.6,3.82-9.72-2-10-1.55,6.76,3.55,6.61,3.82c-.33.57-9.59-2.11-9.89-1.6-.16.28,6.74,3.58,6.61,3.82-.33.57-9.76-1.87-9.93-1.57s6.73,3.61,6.61,3.82c-.25.44-9.94-1.9-10.29-1.28-.12.21,6.75,3.5,6.57,3.8s-8.89-2.22-9.17-1.73c-.16.29,6.55,3.59,6.46,3.73-.19.33-8.43-2.32-8.59-2s6.58,3.54,6.46,3.74-7.93-2.79-8.15-2.4c-.09.16,6.62,3.46,6.47,3.74-.32.55-8.85-2.07-9.1-1.65S99.9,63.85,99.79,64c-.24.41-9.48-1.53-9.67-1.19-.08.14,6.64,3.44,6.47,3.74s-8.48-2.37-8.73-1.94c-.1.17,6.55,3.6,6.47,3.74-.24.41-7.75-2.72-8-2.37-.1.17,6.49,3.43,6.35,3.67s-9.16-1.28-9.42-.83c-.11.2,6.46,3.49,6.35,3.67-.24.42-6.92-3.36-7.19-2.9-.08.14,6.48,3.45,6.35,3.67s-7.66-2.65-7.9-2.24,6.44,3.53,6.35,3.67c-.22.39-7.47-2.84-7.71-2.42-.16.27,6.5,3.42,6.35,3.67-.26.45-9.36-1.13-9.65-.62-.16.28,6.44,3.53,6.35,3.67s-6.33.51-6.52.84.47.05.37.22S70.13,81.5,70,81.81s6.43,3.35,6.27,3.62S68,83.8,67.83,84.1s6.4,3.39,6.27,3.62c-.28.48-8.54-1.36-8.82-.86-.12.21,6.38,3.42,6.27,3.62-.22.38-9.12-.68-9.31-.34s6.42,3.36,6.27,3.62c-.29.5-8.45-1.26-8.71-.81-.14.24,6.35,3.33,6.21,3.59-.24.41-8.6-.68-8.84-.27-.1.17,6.31,3.4,6.21,3.59-.23.4-8.37-1-8.59-.59-.08.13,6.35,3.33,6.21,3.59-.26.44-7.78-1.67-7.93-1.41s6.34,3.34,6.2,3.59c-.23.4-6.81-2.87-6.93-2.67s6.33,3.36,6.2,3.58c-.22.39-7.59-1.93-7.78-1.59-.1.17,6.35,3.33,6.2,3.58s-8.47-.7-8.69-.32c-.11.18,6.32,3.3,6.17,3.56s-6.36-3.34-6.59-2.94,6.29,3.34,6.17,3.56-7-2.3-7.16-2.09,6.24,3.44,6.17,3.56-6.38-3.3-6.57-3,6.29,3.34,6.17,3.56c-.22.38-7-2.37-7.17-2.07s6.26,3.4,6.16,3.56c-.18.31-5.33.64-5.42.8s1.82.71,1.67,1-2.53,1.41-2.63,1.59.48-.06.33.19-4.11-1.2-4.19-1.06,6.3,3.33,6.16,3.56c-.25.43-7.59-1.49-7.74-1.22s6.29,3.34,6.16,3.56c-.26.45-8.1-.6-8.36-.15-.12.21,6.26,3.36,6.15,3.55-.23.4-7-2.07-7.12-1.84s6.25,3.37,6.14,3.55-7.79-.65-8-.25,6.22,3.42,6.14,3.55c-.24.41-7.47-1.21-7.64-.92s6.29,3.3,6.14,3.55-6.62,1.24-6.85,1.64c-.11.2,1.7.78,1.61.93l-1.36,2.29c-.14.24,1.34.57,1.25.72-.18.31-4.68-2.29-4.81-2.06s6.29,3.29,6.14,3.55-6-3.71-6.2-3.44,6.28,3.3,6.14,3.55-6.85-2.13-7.1-1.7c-.1.17,6.31,3.28,6.15,3.55s-7.48-.65-7.63-.4,6.3,3.27,6.15,3.55-6.88-1.94-7-1.75,6.25,3.37,6.14,3.55-6.29-3.18-6.43-2.94,6.29,3.29,6.14,3.55-7.48-.62-7.7-.23c-.08.14,6.26,3.35,6.14,3.55s-7.08-1.48-7.23-1.23,6.21,3.42,6.14,3.55c-.24.42-6.19-3.4-6.33-3.15s6.29,3.28,6.14,3.55c-.27.47-7.82.1-8,.41s6.23,3.38,6.14,3.55-7.22-.77-7.41-.44,6.28,3.38,6.17,3.57c-.23.39-6.1-3.62-6.25-3.36s6.31,3.32,6.17,3.57-7.5.07-7.63.31,6.24,3.44,6.17,3.56c-.24.41-7.15-.76-7.38-.36-.1.18,6.24,3.44,6.17,3.56-.17.29-7-1.11-7.25-.7-.14.25,6.28,3.37,6.16,3.56s-3.29,1.51-3.34,1.61.18-.22,0,0-4.58-.55-4.67-.4,6.26,3.39,6.16,3.56c-.22.39-6.91-1-7.09-.74s6.38,3.31,6.22,3.59-6.95-.77-7.13-.44c-.1.17,6.35,3.37,6.22,3.59s-6.28-3.16-6.41-2.95,6.36,3.35,6.22,3.59-6.82-1.18-7-.84c-.09.15,6.3,3.46,6.22,3.59-.17.3-7-.43-7.22-.11-.07.12,6.33,3.39,6.22,3.59-.25.43-7.19.08-7.37.4-.08.14,6.3,3.44,6.21,3.59-.19.33-7.24.53-7.38.77s6.39,3.48,6.3,3.64c-.2.35-7.1.76-7.26,1s6.38,3.5,6.3,3.64c-.21.37-6.17-3.58-6.39-3.22-.12.21,6.43,3.41,6.3,3.64s-6.21-3.53-6.38-3.22,6.4,3.46,6.3,3.64c-.24.42-6.9-.29-7-.06s6.47,3.35,6.3,3.64-5.73-.1-5.85.11,3.3,1.52,3.14,1.81-4.68.29-4.82.52,6.45,3.37,6.29,3.64-3,2.26-3.13,2.46,1.42.48,1.27.73S4,214.66,3.89,214.87s6.52,3.52,6.42,3.71-6.64-.8-6.81-.5c-.08.14,6.56,3.46,6.42,3.71s-6-.35-6.14-.08,3.61,1.79,3.48,2S3.1,222,3,222.14s6.58,3.43,6.41,3.71-6.39-2.38-6.63-2c-.1.18,6.56,3.45,6.41,3.71S4.12,228.82,4,229s3.52,1.64,3.35,1.94-5.49,1.1-5.59,1.26,6.57,3.58,6.48,3.74-6.67,1-6.78,1.14,6.72,3.55,6.58,3.8-6.62.16-6.74.37S8,244.77,7.89,245s-6.47-1.83-6.67-1.48c-.1.17,6.75,3.49,6.58,3.8-.08.15-3,.39-3.12.51s1.65.74,1.55.9-4.56.91-4.69,1.13,6,3.27,5.93,3.43S1.2,249.57,1,250c-.09.15,6.67,3.63,6.57,3.8S1.11,251,.91,251.31c-.11.19,6.71,3.57,6.57,3.8S1,251.49.89,251.73s6.78,3.52,6.61,3.82S1,252.44.85,252.73s6.79,3.7,6.69,3.87-5.28-1.19-5.4-1,1.31.52,1.21.7S1.12,258.58,1,258.78s6.87,3.78,6.79,3.92c-.26.45-6.62-3.51-6.76-3.27s6.94,3.66,6.79,3.92-6.55-.74-6.65-.56,6.91,3.72,6.79,3.92c-.23.4-6.56-3.16-6.75-2.85s7,3.6,6.79,3.92-6.5-1.08-6.66-.8,6.94,3.66,6.79,3.92-6.56-2.61-6.73-2.33,6.89,3.75,6.79,3.92-4.81.81-4.9,1c-.18.31,4.16,2.18,4.06,2.34s-3.24.12-3.35.33,2.91,1.42,2.8,1.62-4.5,1.15-4.59,1.3c-.18.32,7.15,3.93,7.07,4.08-.18.31-6.71-3.31-6.93-2.93s7.16,3.91,7.07,4.08-6.28.39-6.48.74c-.09.15,7.19,3.88,7.07,4.08s-6.59-1.14-6.69-1,7.17,3.91,7.07,4.08S4.16,293.86,4,294.06s7.5,4.1,7.39,4.27c-.22.39-6.87-3.21-7.11-2.79-.16.27,7.61,3.95,7.42,4.29-.07.11-2,2.49-2.13,2.66-.18.32,2.81,1.34,2.69,1.55s-3.58-.07-3.7.14,3.45,1.75,3.34,1.93-4.89,1.73-5,2,7.59,4,7.42,4.29-6.94-3.43-7.17-3c-.12.21,7.52,4.13,7.43,4.29s.45,3.16.36,3.31.81.19.69.4-4.24,2.29-4.33,2.44,3.78,1.88,3.65,2.11-4.67-1.29-4.84-1,8,4.32,7.87,4.54-6.83-1.94-7-1.61,8,4.27,7.87,4.55-7.22-3.36-7.42-3,8.09,4.17,7.87,4.55-6.83-1.92-7-1.6,8.06,4.36,7.93,4.58-7.65-4.44-7.81-4.17,8.17,4.29,8,4.61-5.94,1.26-6,1.43c-.23.39,8.55,4.65,8.42,4.87S17.14,341.78,17,342c-.25.44,8.64,4.52,8.43,4.87S18,343.69,17.8,344s8.68,4.45,8.43,4.87-5.87,1.44-6,1.63,9.23,5,9.1,5.26-1.85,2-1.95,2.17c-.24.42,3.87,1.63,3.61,2.09-.16.29-5.65.77-5.82,1.08s9.4,4.86,9.15,5.29c-.09.16-2.88-.89-3-.76-.24.42,1.72.36,1.45.84-.1.17-5.42-1.18-5.56-.93-.29.5,9.83,5.28,9.66,5.58-.33.58-8.65-4.46-8.92-4-.14.24,10.15,5.28,9.89,5.72-.12.21-5.39-1.92-5.49-1.75-.21.37,3.08,1.4,2.91,1.68s-2.44-1.44-2.48-1.36c-.3.52,3.87,1.49,3.54,2s-6.26-3-6.44-2.71c-.32.55,10.26,5.52,10.08,5.83-.38.66-9.43-5.91-9.78-5.3s10.27,5.5,10.08,5.83-7-.88-7.13-.63,10.36,5.36,10.09,5.83c-.13.23-5.56,1.7-5.69,1.91s11.49,5.94,11.19,6.46c-.12.22-7.78-2.18-8.06-1.69s11.6,6.13,11.35,6.56-7-3.2-7.2-2.93c-.31.54,5.37,2.28,5,2.9-.25.43,5.77,7.27,5.63,7.52-.32.55,1-.33.59.34-.14.25,1.47,4,1.34,4.18-.25.43.84-.3.5.29-.2.34,3.79,4.64,3.63,4.92-.45.78,1.47.29,1.22.71-.09.15-2.47-.37-2.53-.27-.26.45.77-.3.44.26-.16.28,5,4,4.82,4.29-.43.74,3.18.62,2.65,1.53-.12.21,3,4.78,2.81,5.13-.44.76,9.22,4.34,8.79,5.08-.24.42-8.24-5-8.45-4.6-.58,1,7.64,3.36,7.19,4.15s8.34,8.79,8.09,9.23c-.63,1.09,11.53,5.47,11,6.36-.27.46-10.23-6.26-10.61-5.6-.86,1.49,5.12,1.24,4.38,2.53-.39.67,8.88,8.66,8.67,9-2.24,3.88,65.31,30.84,62.33,36-1.58,2.74-57.81-35.54-59.77-32.15-1.29,2.24,40.6,21.29,39.66,22.92-.59,1-19.81-10.76-20.25-10s14.26,7.33,13.87,8" fill="none" stroke="#999" stroke-linecap="round" stroke-linejoin="round" stroke-width="0.97"/><path d="M201.15,329.13c-2.27,3.94,66,32.41,63.53,36.71-2.21,3.84-67.11-38.83-68.57-36.29-2.45,4.25,57.34,29.12,55.61,32.13-.9,1.56-52.28-28.3-53.72-25.79-2.69,4.66,49.21,23.5,47.08,27.2-1.48,2.57-48.47-27.45-49.56-25.56-1.31,2.26,52.27,26.55,50.69,29.29-2.22,3.86-56.46-33.68-57.63-31.66-2.47,4.29,60.35,30.86,58.62,33.87-1.1,1.9-55.6-34.07-57.67-30.48-1.94,3.37,57,29.73,55.63,32.14-1.73,3-58.33-36.72-59.73-34.28-2,3.47,62.6,31.91,60.76,35.1C244.72,374,185.82,333,183.93,336.3s63.92,32.29,61.91,35.77c-1.76,3-60.55-39.71-62.9-35.62-1.76,3,62.07,30.63,59.81,34.56-2.52,4.37-62.11-37.8-64.2-34.17-2.38,4.13,62.3,30.3,59.84,34.57-1.78,3.09-54.6-32.42-55.87-30.23-1.66,2.88,57.74,30.27,56.41,32.59s-56.69-34.92-57.84-32.93c-1.79,3.1,56.7,28.93,55,31.81-1.41,2.44-49.42-30.85-51.06-28-2,3.5,43.62,22,42.24,24.4-1.7,3-44.36-27.57-45.57-25.48-2.48,4.3,54.6,28.06,53.09,30.68-1.89,3.27-57.68-33.29-58.76-31.42-1.68,2.91,56.25,28.78,54.64,31.57-1.25,2.17-53.22-31.65-54.26-29.84-1.64,2.84,48.45,24.9,47.11,27.22-.84,1.45-46.46-29.44-47.76-27.19-2.24,3.88,44.57,21.55,42.75,24.7-1.62,2.81-44.23-24.09-45.33-22.17-1.35,2.33,47.68,24.47,46.35,26.78-1.72,3-46.79-27.6-48.13-25.28-1.83,3.17,49,24.54,47.4,27.39-1,1.71-57-31.7-58.63-28.79-2,3.5,50.35,24.31,48.28,27.9-.95,1.64-42.72-27.38-44.08-25-1.73,3,40,18.78,38.12,22-1.29,2.23-38.36-21.45-39-20.29-1.57,2.71,42.87,22,41.68,24.08-1.87,3.24-49.52-29.35-51-26.84-1,1.8,53.68,27.44,52.13,30.12-1.86,3.22-47.55-27-49.45-23.76-1,1.76,36.76,18,35.37,20.44-2,3.48-50.23-29.89-52.13-26.6-1.05,1.83,47.28,23,45.41,26.24-.83,1.44-34-21.43-35.15-19.46-1.41,2.44,32.37,16.45,31.39,18.14-.86,1.49-35.37-18-36-16.86-1.5,2.6,30.78,15,29.56,17.08-1.35,2.35-39-22.52-39.77-21.25-1.71,3,34.76,18.21,33.95,19.61s-38.3-24.63-39.8-22c-.89,1.54,46.53,24.76,45.61,26.35-1.64,2.84-41.15-24.66-42.7-22-.76,1.31,35.88,18.37,34.86,20.14-1.36,2.35-40.16-22.25-41.15-20.53-1.11,1.92,26.26,12.51,25.1,14.5-.78,1.35-27.35-13.57-28-12.41-1.3,2.26,15.85,6.87,14.86,8.59-.67,1.17-20.72-12.31-21.32-11.26-1.3,2.26,21.26,10,20.29,11.72-.44.76-23-11.83-23.81-10.36-.34.6,7.4,3.18,6.92,4" fill="none" stroke="#999" stroke-linecap="round" stroke-linejoin="round" stroke-width="0.97"/><path d="M165.75,280.59c-4.42,7.66,122.59,59.65,117.75,68-2,3.42-109-67.18-111.73-62.41-2.37,4.11,112.35,54.79,108,62.38S166,278.88,162.17,285.53C159.61,290,285.51,349.59,282.39,355c-3.26,5.65-126.38-80.59-130.51-73.44-4.39,7.62,127.24,63.66,123,71.05-4.47,7.75-118.49-71.31-121.17-66.66-4.64,8,121,60.77,117.08,67.65-2.15,3.72-119.39-74-124-66.06-3.93,6.82,128.81,61.93,123.41,71.3-4.4,7.63-121.22-72.94-124.61-67.06-3.15,5.46,118.8,57.7,114.06,65.9-3,5.27-107.14-66.72-111.41-59.33-.9,1.56,47.74,24.5,46.4,26.81-.83,1.43-36.83-19.42-38.24-17-.87,1.5,16.71,8.28,16.12,9.31-.35.61-16.58-11-17.27-9.78-1.06,1.83,19.63,10.12,19.1,11-.3.52-13.33-5.91-13.56-5.52-.43.74,12,6,11.59,6.7-.29.49-9.12-5.79-9.47-5.18-.1.17,7.67,4,7.47,4.31" fill="none" stroke="#999" stroke-linecap="round" stroke-linejoin="round" stroke-width="0.97"/><path d="M124.66,141.11s2.69,1.53,2.68,1.55-3-.93-3-.8,4.67,2.57,4.62,2.67-3,2.4-3.16,2.64c-.27.48,5.8,2.88,5.6,3.23s-7.5-3.77-7.64-3.54c-.35.61,6,2.84,5.71,3.3-.17.29.59,5.15.47,5.34-1,1.69,22.07,10.44,21.07,12.17-.83,1.45-21.66-11.72-22.48-10.29-1.3,2.25,34.15,16,32.53,18.79-.7,1.21-36-19.33-37.09-17.37-4.25,7.36,220.76,115.6,215.59,124.57-7,12.18-213-131.59-218.35-122.41C114.34,172.81,338,273.57,332.51,283.07c-3.66,6.34-200.94-131.38-209.25-117-7,12.08,220.42,112.69,214.08,123.69-5.2,9-210.86-130.6-216-121.72-8.18,14.18,212.8,111.78,208,120.16-7.8,13.52-198.78-128.95-206-116.45-6.45,11.18,212,105.83,204.82,118.34-7.67,13.29-202-131.12-208.69-119.61-7,12.16,214.09,110.22,208.26,120.33C323.27,298.57,134.16,163,126.12,177c-6.63,11.49,214,103.5,205.29,118.61C326,305,130.74,171.28,125.21,180.87c-6.65,11.53,214.7,107.44,207.51,119.9-7.88,13.66-200.65-122.24-204.51-115.55-5.92,10.25,204.47,108.09,200.12,115.63-4.12,7.14-199.4-125.79-204.84-116.36-5.18,9,206.38,107.84,201.45,116.39s-195.2-121-199.25-114c-7.38,12.79,210.21,107.6,204.21,118-5.38,9.33-198.21-125-202.84-116.94-4.18,7.25,208.27,101.76,200.23,115.69C320,316.36,128.23,177.42,121.14,189.71c-5,8.62,206.21,102.72,199.1,115-3.88,6.73-193.54-116-197.56-109.06-5.32,9.22,209.54,105.57,202.84,117.2-7.82,13.55-194.3-127.56-202.32-113.65-7.4,12.82,208,108.53,203,117.27C322.32,323.2,137,193.32,129.51,206.28,123.44,216.8,319.57,307.81,316,314c-5.79,10-178.78-112.5-184.34-102.86-3.8,6.59,193.67,102.55,189.63,109.56-6.24,10.81-176.36-107-179.61-101.38C136.11,229,316.55,305,309.88,316.53c-6.21,10.76-165-105-170.64-95.32C132.73,232.48,322,311.47,315.38,323c-4.73,8.2-164.54-106.14-171.16-94.68-7.07,12.26,167.4,82.37,161.19,93.13-5.84,10.12-155.26-97.18-159-90.7-5.83,10.11,165.11,86.54,161.28,93.19-5.47,9.48-177.26-112.68-183-102.69-5.9,10.23,193.86,97.63,187.64,108.42C305.94,340.72,126.27,212.07,120,222.93c-5.93,10.27,193.81,99.72,188.5,108.92C304,339.68,132.29,214,125.1,226.49,120.24,234.92,314,326.87,310.18,333.44c-5.89,10.2-188.76-115.94-193-108.59S311.58,324.27,306,333.95c-6.32,11-177.76-109.13-181.36-102.9C117.57,243.31,311,331.12,307.71,336.82c-3.44,6-176.94-111.62-182.06-102.74C118.79,246,306.31,323.65,299.9,334.76c-5,8.68-165.84-104-170.86-95.32-6.35,11,180.44,89,173.86,100.45-5.66,9.81-170.35-108.5-177.08-96.82-6.52,11.3,170.16,90.42,166.74,96.34-4.92,8.54-157.19-100.18-162.48-91-4.45,7.71,165.34,86.31,161.35,93.23-5.5,9.53-154.11-98.5-158.31-91.22-6,10.41,164.08,81.28,158.23,91.42C286.07,351,136,246,132.64,251.84c-4.64,8,162,80,156.15,90.22-4.87,8.44-152.56-95.39-156.67-88.27C126,264.31,289.75,331.68,284,341.57c-2.87,5-151.09-92.52-154.43-86.73-5.32,9.22,156.83,82.35,153.25,88.55-3.77,6.54-140.41-87.19-144.4-80.27-5,8.66,148.81,77.92,145.32,84-4,6.88-135-83.37-139.19-76-.18.3,7.67,4.12,7.54,4.35" fill="none" stroke="#999" stroke-linecap="round" stroke-linejoin="round" stroke-width="0.97"/><path d="M394.78,159l2.25,1.3c-.23.39-7.48.56-7.69.92-.09.16,5.06,2.71,5,2.87-.26.46-8.94-1.47-9.1-1.19s7.2,3.78,7,4.07c-.43.74-12.78-2.75-13.09-2.21s10.62,5.58,10.38,6c-.38.66-11.46-6.11-11.75-5.59s11.49,5.84,11.15,6.44-10.89-1.77-11.28-1.09,2.16.34,1.77,1c-.17.29-7-1.42-7.26-1-.53.91,9.09,4.18,8.62,5s-14.16-6.76-14.61-6c-.31.55,4.93,2,4.58,2.65-.08.15-2.69.23-2.73.31-.59,1,13,6,12.31,7.11" fill="none" stroke="#999" stroke-linecap="round" stroke-linejoin="round" stroke-width="0.97"/><path d="M331.72,135.72c-.11.2,7.31,3.91,7.17,4.14s-11.56-3.34-11.91-2.71c-2.14,3.72,42.22,22,41.17,23.79-1.61,2.79-52.4-29.67-53.73-27.37-1.84,3.2,45,22.34,43.43,25.1S306.23,128.72,304.34,132c-2,3.5,53.5,25.25,51,29.5-1.47,2.54-45.43-26.31-46.72-24.08-1.92,3.33,45.58,23.42,44.32,25.61-1.81,3.13-51.16-29.05-52-27.52-2.38,4.13,72.43,36.42,70.08,40.49-2.52,4.36-72.82-46.71-75.81-41.52-2.61,4.53,73.11,38.69,71.57,41.36-1.4,2.43-74.95-45.36-76.34-42.94-2.7,4.69,78.18,41.55,76.61,44.26-2.17,3.77-71.13-42.78-72.51-40.38-3.1,5.37,75.79,39.33,73.86,42.67-2.42,4.2-75.4-47-78.29-42-3.23,5.6,78.86,39.79,76.36,44.12-1.64,2.85-78.93-47-80.87-43.62-2.87,5,77.53,40.46,75.65,43.71s-69.59-42.13-71-39.6c-3.17,5.49,74.64,37.61,72.25,41.75-3.1,5.38-77.86-45.67-79.79-42.32-2.54,4.4,84.36,41.62,81.28,47-3.17,5.5-80.58-49.37-82.83-45.48-1.94,3.37,81.23,43,79.52,45.95-1.83,3.17-83.75-49.43-85.37-46.63-2.55,4.43,83.48,40.23,80,46.23-3.21,5.56-78.19-48.95-80.89-44.27-2,3.52,83.54,43,81.26,47-2.44,4.23-75.4-48.21-78.23-43.31-3.1,5.37,83.63,42.51,81.11,46.87-3.15,5.45-79.64-47.71-81.27-44.87-3.87,6.71,85.32,42.62,82.43,47.63-3,5.24-84.74-50.3-86.28-47.64-3.88,6.72,91.22,43.65,87.3,50.44-1.85,3.21-82.51-49.24-85.39-44.24-4,6.94,94.59,47.87,91.66,53-3.25,5.64-96-60.85-98.53-56.47-2,3.43,100,48.35,95.93,55.43-2.61,4.52-89.24-54.55-92.5-48.9-3.46,6,98.49,47.75,94.53,54.62-2.7,4.67-102.68-62.29-106-56.55-2.17,3.76,106.07,52.26,102.16,59-3,5.13-96.68-54.66-98.57-51.39-4.28,7.42,99.18,52.06,96.91,56-3.52,6.09-102.67-63.22-105.66-58C252.15,168.16,367.05,218,363,225c-3.4,5.89-104.89-64.09-107.25-60-3.08,5.35,109.82,56.6,106.85,61.74-2.5,4.34-96.46-58.22-99.26-53.36-3.68,6.37,95.48,44.88,91,52.6-2.33,4-91-52.72-92.92-49.32-2.83,4.9,97.26,49.74,94.46,54.58-2.32,4-97-60.16-99.77-55.41C254,179.47,362,228,358.14,234.77c-3.25,5.63-98.16-56.71-99.95-53.61-3.7,6.41,96.51,45.68,92.15,53.25-2.57,4.46-93.3-55.53-95.13-52.36-4.45,7.71,101.13,50.7,97.78,56.5-1.72,3-97.17-59.14-100.88-52.7-4.23,7.33,110.22,56,106.89,61.76-2.89,5-98.9-59.68-101.66-54.9-3.72,6.45,101.58,48.79,97.3,56.22-4,7-101.27-60.7-103.48-56.87-4.44,7.69,111.05,56,107.53,62.13-3.22,5.58-108.25-64.11-110.36-60.45-4.26,7.38,103.54,54.52,101.24,58.5-2.67,4.63-95.09-59.41-97-56-2.81,4.87,102.19,49.64,98.12,56.69-3.9,6.76-94.19-61.12-97.15-56C249.65,203.58,356,247.6,352.34,254c-3.5,6.06-97.56-62.44-100.3-57.68-4.18,7.24,106.11,51.81,102,58.94-3.74,6.48-105.26-65-107.32-61.4-1.93,3.35,106.91,55.32,104.12,60.16-2.68,4.65-96-63.36-99.74-56.84-4,6.9,105.63,51.94,101.7,58.76-1.79,3.1-96.27-62.62-99.9-56.32S349,248.23,346,253.44c-3.24,5.62-91.6-53-93.45-49.78-2.86,5,100.57,48.29,96.32,55.65-1.8,3.11-96.61-59-98.39-55.91-4.1,7.11,106.24,52,102.18,59-1.75,3-95.16-58.9-97.41-55-4.31,7.47,97.92,48.4,94.38,54.53s-96.6-59.75-99-55.54c-3.76,6.52,96.18,46.38,92.2,53.27-2.75,4.77-84-50.25-85.56-47.58-3.42,5.93,98.86,52.13,96.7,55.87-3.71,6.44-108.56-65.7-110.92-61.6-2,3.47,108.74,57.83,106.58,61.58-3.72,6.44-109.27-65.59-111.64-61.5-3.34,5.79,108,55.38,105,60.64-3.29,5.71-105.73-66.87-110.1-59.29C228.67,215.06,346,262,341.1,270.39c-4.13,7.15-118.83-70.07-121.32-65.75-3.29,5.7,130.87,64.23,125.94,72.77-5.25,9.1-130.31-82.5-134.6-75.07-4.89,8.47,136.45,67,131.31,75.87-4.71,8.17-150.6-94.65-155.27-86.55-4.24,7.35,159.06,80.73,154.22,89.11" fill="none" stroke="#999" stroke-linecap="round" stroke-linejoin="round" stroke-width="0.97"/><path d="M386.85,134.12s2.27,1.3,2.27,1.31c-.11.2-4.76-.13-4.91.14,0,.07,4,2.2,4,2.3s-3.92.77-4,1,1.1.47,1,.59-6.56-.95-6.69-.72,7.81,4.19,7.67,4.43c-.27.48-10-1.78-10.29-1.31s5.51,2.76,5.32,3.08-5.92,1.63-6,1.81c-.31.53.81-.13.55.32-.05.09-3.41-.73-3.48-.61-.29.5,1.15-.07.84.48-.21.37-10.29-1-10.53-.62s6.25,2.32,5.69,3.29c0,.07,1.45,1.08,1.41,1.13-.56,1,5.6,2.19,5.15,3-.26.46-7.54-4.22-7.7-3.95-.55,1,5.15,1.87,4.67,2.7-.27.46-8.49-1.87-8.64-1.62-.38.66,7.53,2.81,6.86,4-.4.7-12.52-6.63-13-5.81s11.55,5.06,10.85,6.27c-.23.41-9.62-4.62-9.88-4.16-.52.89,6.67,3,6.29,3.63-.25.44-8.28-2.44-8.49-2.08-.82,1.43,9,4.07,8.48,4.9" fill="none" stroke="#999" stroke-linecap="round" stroke-linejoin="round" stroke-width="0.97"/><path d="M249.76,20.64C390,16.08,500.48,113.23,492.88,256.47,500.54,389.88,387,496.38,253,489.34,119.55,501.39,0,396.65,11.12,261.78,8.67,127.86,110.14,6.29,249.64,12.6m.1,3.44C114.9,11.39,2,110.15,4.21,256.53,2.05,392.79,111.89,501.16,253,494c141.74,12.34,245.44-94.22,246.81-232C507.31,125.17,385.16,1.34,249.62,7.79,246.43,10.62,252.36-6.89,249.74,16Z" fill="none" stroke="#666" stroke-width="2.43"/><path d="M386.21,139.79c-6.45,5.07-19.47,3.4-36.8,12-7.33-15.85-24.66-25.75-41.9-24.36-30.56,1.17-62.78,32.7-59,69.7,1.38,4.87-3.59,4.19-.51,10.52-52,.28-92.62-31.56-123.29-66.9-7.78,9.33-8.41,15.46-3.59,29-6.08,26.38,8.42,43.56,26.18,60.65-14.8-3.09-24.06-8.42-26.41-14.69-3.43,3.94-3.25,6-2.11,5-4.11,26.06,17.2,54.76,48.75,54.91-9.45,7.44-11.17,8.87-19,9.77-3.83.3-6.31-2.87-9.17,0a46.52,46.52,0,0,0,55.85,36.49c-19.76,24.65-47.09,35.5-72,30-12,5-11.74-1.59-13.39-3.09,23,17.41,55.22,35.3,86.24,27.15,110.37,2.78,169.59-89.62,167.06-170.56,6.5-6.44,6.81-15,4.25-17.69,12.18-5.12,21.18-15.45,29.36-27.68-6.88,4.38-23.71,4-38,6C375.41,158.75,386,143.33,386.21,139.79Z" fill="none" stroke="#666" stroke-width="2.43"/><path d="M242.9,5.88C376,13,492.54,116.74,504.83,250.41,488.23,389.78,392.9,496.08,257.67,506.07,114.64,499,6.27,388,12,252.31,14.31,123.28,123.48,16.54,251.6,9.62M242.74.93C106.13,8.16,3.86,113.77,6.43,250.32c-7,142.36,117,250.56,251.37,260.75,126.45-7.2,237.08-120.23,252.92-258.81C503.09,120.44,393.26,11.8,251.62,4.75,246.6,5.66,254.82,5,242.74.93Z" fill="none" stroke="#4c4c4c" stroke-width="1.82"/><path d="M384.87,132.35C370.53,143,362.66,145.77,355.6,146.6c-19.71-7-27.22-15.72-44.19-15.61-39.45,1.38-65.79,28-59.54,60.07-1.47,8.36-.57,14-2.76,16.62-52-3.7-94.37-27-121.39-69.57-8,14.24-3.6,25.29-15.09,35.82,6.92,23.11,20,40.76,30.77,53.46-9-.31-13.55-3.45-25.9-11.4,6.78,4.15,4,4.77,2.67,2.51-6.61,32.43,24.13,54.44,49.77,61.2-4.85-.38-8.93,4.14-24.67,1.82-.51-.41-7,1.45-13.3,2.26,18.32,22.9,40.82,37.95,65.26,39.26-22.93,17.89-50.88,28.29-75,29.53-.1-1.33-15.44-3.54-22.62-2.8,33.16,16.9,61.31,26.12,96.9,30.31C310,377.93,364.72,280.78,369.54,200.57c-6-2.39-7.1-3.64-.23-6.82,7.55-12.14,18.19-20.7,30.43-34.35-18.87,3.44-26,10-35.28,10.54C367.47,160.92,384.75,148.88,384.87,132.35Z" fill="none" stroke="#4c4c4c" stroke-width="1.82"/></svg>